<svg xmlns="http://www.w3.org/2000/svg" viewBox="0 0 100 100" width="100%" height="100%">
  <defs>
    <linearGradient id="gradienteVisor" x1="0%" y1="0%" x2="100%" y2="100%">
      <stop offset="0%" stop-color="#fffbf7" />
      <stop offset="100%" stop-color="#eaddcd" />
    </linearGradient>
    <linearGradient id="gradienteFondo" x1="0%" y1="0%" x2="0%" y2="100%">
      <stop offset="0%" stop-color="#7a522c" />
      <stop offset="100%" stop-color="#9c7042" />
    </linearGradient>
  </defs>

  <circle cx="50" cy="50" r="50" fill="url(#gradienteFondo)" />
  
  <path d="M50 50 L20 100 M50 50 L35 100 M50 50 L50 100 M50 50 L65 100 M50 50 L80 100" stroke="#fffbf7" stroke-width="0.5" opacity="0.15" />
  <line x1="15" y1="75" x2="85" y2="75" stroke="#fffbf7" stroke-width="0.5" opacity="0.15" />
  <line x1="5" y1="90" x2="95" y2="90" stroke="#fffbf7" stroke-width="0.5" opacity="0.15" />

  <polygon points="36,32 64,32 60,56 50,64 40,56" fill="#fffbf7" />
  
  <polygon points="30,36 70,36 67,48 33,48" fill="#7a522c" />
  <polygon points="32,38 68,38 66,42 34,42" fill="url(#gradienteVisor)" opacity="0.9" />
  
  <rect x="45" y="60" width="10" height="8" fill="#eaddcd" />
  
  <path d="M20 82 L32 70 L68 70 L80 82 L75 92 L25 92 Z" fill="#fffbf7" />
  
  <line x1="32" y1="70" x2="40" y2="92" stroke="#9c7042" stroke-width="2" />
  <line x1="68" y1="70" x2="60" y2="92" stroke="#9c7042" stroke-width="2" />
</svg>
