<svg xmlns="http://www.w3.org/2000/svg" viewBox="0 0 100 100" width="100%" height="100%">
  <circle cx="50" cy="50" r="50" fill="#9c7042" />
  
  <polygon points="50,22 34,38 50,54" fill="#f3ebe1" />
  <polygon points="50,22 66,38 50,54" fill="#fffbf7" />
  
  <polygon points="50,58 20,78 36,88 50,58" fill="#eaddcd" />
  <polygon points="50,58 80,78 64,88 50,58" fill="#fffbf7" />
  <polygon points="50,58 36,88 50,88" fill="#f3ebe1" />
  <polygon points="50,58 64,88 50,88" fill="#fcf8f2" />
  
  <path d="M20,78 C28,86 38,90 50,90 C62,90 72,86 80,78 L64,88 L36,88 Z" fill="#eaddcd" opacity="0.3" />
</svg>
